<svg width="216" height="46" viewBox="0 0 216 46" fill="none" xmlns="http://www.w3.org/2000/svg">
<g clip-path="url(#clip0_6525_7589)">
<path d="M59.1192 45.4762V20.8594H63.1855L70.7277 37.6692C71.7008 39.8844 72.2913 41.7134 72.2913 43.0496H72.7081C72.7081 41.748 73.1942 39.9901 74.2025 37.7038L81.7788 20.8594H85.8802V45.4752H83.1697V23.6375H82.6826C82.6475 24.5164 82.4396 25.8882 81.4313 28.1389L73.6803 45.4762H71.2469L63.4959 28.1745C62.4886 25.8537 62.3138 24.5174 62.2797 23.6385H61.8277V45.4762H59.1172H59.1192ZM89.4284 40.553C89.4284 36.7903 92.8339 34.7153 97.8392 34.5406L102.566 34.3292V33.872C102.566 30.6722 100.342 29.652 97.3873 29.652C95.0584 29.652 92.383 30.285 92.1048 33.6962H89.4987C89.7076 29.5473 92.6611 27.261 97.4224 27.261C102.184 27.261 105.173 29.652 105.173 33.9065V45.4762H102.567V41.6433H102.046C100.726 44.5972 98.0843 46.0046 95.3386 46.0046C92.0365 46.0046 89.4304 43.9652 89.4304 40.554L89.4284 40.553ZM102.566 37.1774V36.4041L97.8392 36.5799C95.2321 36.6856 92.0696 37.3187 92.0696 40.2726C92.0696 42.5578 93.7377 43.7894 96.0667 43.7894C99.6459 43.7894 102.566 40.9412 102.566 37.1784V37.1774ZM125.246 39.7797C123.995 44.1054 120.311 46.0046 116.488 46.0046C110.858 46.0046 107.625 41.8557 107.625 36.6501C107.625 31.4444 110.683 27.261 116.383 27.261C122.084 27.261 124.934 30.9526 124.934 36.2985V37.4589H110.197C110.406 41.7134 113.081 43.6837 116.488 43.6837C119.269 43.6837 121.667 42.4176 122.605 39.7808H125.246V39.7797ZM110.232 35.2082H122.327C122.084 31.3398 119.65 29.5463 116.383 29.5463C113.116 29.5463 110.544 31.5501 110.231 35.2082H110.232ZM129.485 40.0602C129.868 42.4522 131.57 43.7884 134.177 43.7884C136.609 43.7884 138.208 42.6279 138.208 40.6587C138.208 39.1822 137.27 38.0919 135.115 37.7749L131.917 37.3187C128.442 36.7913 126.809 34.6808 126.809 32.2898C126.809 29.2303 129.519 27.261 133.69 27.261C137.861 27.261 140.814 29.2303 141.266 33.4503H138.625C138.347 31.165 136.957 29.5117 133.515 29.5117C130.7 29.5117 129.38 30.6366 129.38 32.2187C129.38 33.8008 130.666 34.7865 132.125 34.9968L135.775 35.5943C139.389 36.1572 140.676 38.2667 140.745 40.4829C140.85 43.8239 138.173 46.0046 134.211 46.0046C130.457 46.0046 127.26 43.9997 126.947 40.0612H129.484L129.485 40.0602ZM145.634 40.4118V29.9324H142.158V27.7874H145.634V23.7432L148.24 23.2158V27.7884H153.384V29.9334H148.24V40.0612C148.24 42.4176 148.623 43.7894 150.673 43.7894C151.438 43.7894 152.307 43.6136 153.384 43.1218V45.2668C152.202 45.7586 151.09 46.0056 149.908 46.0056C147.024 46.0056 145.633 44.3178 145.633 40.4138L145.634 40.4118ZM155.422 45.4752V27.7874H158.029V31.3387H158.55L158.654 31.0217C159.592 28.2436 161.817 27.259 164.112 27.259C164.668 27.259 165.119 27.3291 165.606 27.4348V29.8257H163.312C158.898 29.8257 158.03 34.2571 158.03 37.1053V45.4752H155.423H155.422ZM166.002 36.648C166.002 31.3387 169.442 27.259 174.969 27.259C180.495 27.259 183.936 31.3377 183.936 36.648C183.936 41.9583 180.495 46.0025 174.969 46.0025C169.442 46.0025 166.002 41.8882 166.002 36.648ZM168.678 36.648C168.678 41.0794 171.459 43.6116 174.969 43.6116C178.479 43.6116 181.26 41.0794 181.26 36.648C181.26 32.2167 178.479 29.6855 174.969 29.6855C171.459 29.6855 168.678 32.2167 168.678 36.648Z" fill="#0F0311"/>
<path d="M20.1077 16.2904C20.1077 22.8393 17.5367 29.121 12.9592 33.7516L6.70758 40.077L3.29705 36.6262L13.605 26.1966C13.7727 26.0269 13.6542 25.7353 13.4162 25.7353H0.601562V20.8548H14.8915C15.1084 20.8548 15.2841 20.677 15.2841 20.4575V6H20.1077V16.2904ZM39.6138 25.7363H26.6978C26.4979 25.7363 26.3975 25.4914 26.5391 25.3492L36.9213 14.8444L33.5108 11.3936L27.2572 17.7211C22.6797 22.3516 20.1087 28.6333 20.1087 35.1823V45.4726H24.9323V31.0141C24.9323 30.7946 25.108 30.6168 25.3249 30.6168H39.6148V25.7363H39.6138Z" fill="#0F0311"/>
</g>
<rect x="172.602" y="7" width="37" height="20" rx="10" fill="#C53DD8"/>
<path d="M183.986 20C185.114 20 185.962 19.472 185.962 18.48C185.962 17.688 185.394 17.28 184.722 17.192L184.522 17.176V16.992L184.73 16.976C185.314 16.872 185.794 16.544 185.794 15.824C185.794 14.96 185.122 14.4 183.874 14.4H181.25V20H183.986ZM182.498 16.664V15.312H183.634C184.25 15.312 184.498 15.624 184.498 15.992C184.498 16.4 184.186 16.664 183.69 16.664H182.498ZM183.778 17.584C184.354 17.584 184.658 17.88 184.658 18.304C184.658 18.704 184.402 19.064 183.778 19.064H182.498V17.584H183.778ZM186.914 20H190.634V18.928H188.162V17.664H190.394V16.64H188.162V15.472H190.602V14.4H186.914V20ZM195.437 14.4H191.317V15.472H192.749V20H193.997V15.472H195.437V14.4ZM200.892 20L198.748 14.4H197.436L195.292 20H196.62L197.06 18.848H199.124L199.564 20H200.892ZM197.596 17.432C197.868 16.712 197.956 16.296 197.988 15.92L198.004 15.744H198.18L198.196 15.92C198.228 16.296 198.316 16.704 198.588 17.448L198.724 17.808H197.452L197.596 17.432Z" fill="#F5F5F5"/>
<rect x="172.602" y="7" width="37" height="20" rx="10" stroke="#F5F5F5" stroke-width="3"/>
<defs>
<clipPath id="clip0_6525_7589">
<rect width="183.333" height="40" fill="white" transform="translate(0.601562 6)"/>
</clipPath>
</defs>
</svg>
