<svg width="110" height="24" viewBox="0 0 110 24" fill="none" xmlns="http://www.w3.org/2000/svg">
<g clip-path="url(#clip0_2832_2164)">
<path d="M35.1106 23.6841V8.91406H37.5504L42.0756 19C42.6595 20.3291 43.0138 21.4265 43.0138 22.2282H43.2639C43.2639 21.4472 43.5555 20.3925 44.1605 19.0207L48.7062 8.91406H51.1671V23.6835H49.5408V10.5809H49.2485C49.2274 11.1083 49.1027 11.9314 48.4977 13.2818L43.8472 23.6841H42.3871L37.7366 13.3031C37.1322 11.9106 37.0273 11.1089 37.0069 10.5815H36.7357V23.6841H35.1094H35.1106ZM53.296 20.7302C53.296 18.4726 55.3392 17.2276 58.3424 17.1228L61.1787 16.996V16.7216C61.1787 14.8017 59.844 14.1896 58.0713 14.1896C56.6739 14.1896 55.0687 14.5694 54.9018 16.6161H53.3381C53.4635 14.1268 55.2356 12.755 58.0924 12.755C60.9491 12.755 62.743 14.1896 62.743 16.7423V23.6841H61.1793V21.3844H60.8666C60.0742 23.1568 58.4895 24.0012 56.842 24.0012C54.8608 24.0012 53.2972 22.7775 53.2972 20.7309L53.296 20.7302ZM61.1787 18.7049V18.2409L58.3424 18.3464C56.7782 18.4098 54.8807 18.7896 54.8807 20.562C54.8807 21.9331 55.8816 22.6721 57.2789 22.6721C59.4264 22.6721 61.1787 20.9631 61.1787 18.7055V18.7049ZM74.7864 20.2663C74.0356 22.8617 71.8254 24.0012 69.5314 24.0012C66.1535 24.0012 64.2138 21.5119 64.2138 18.3885C64.2138 15.2651 66.0486 12.755 69.4688 12.755C72.8889 12.755 74.599 14.97 74.599 18.1775V18.8738H65.757C65.8823 21.4265 67.4875 22.6087 69.5314 22.6087C71.1999 22.6087 72.6389 21.849 73.2016 20.2669H74.7864V20.2663ZM65.7781 17.5233H73.0347C72.8889 15.2023 71.4289 14.1262 69.4688 14.1262C67.5086 14.1262 65.9655 15.3285 65.7775 17.5233H65.7781ZM77.3298 20.4346C77.5594 21.8697 78.5807 22.6715 80.145 22.6715C81.6044 22.6715 82.5637 21.9752 82.5637 20.7936C82.5637 19.9078 82.0009 19.2536 80.7078 19.0634L78.7892 18.7896C76.7038 18.4732 75.724 17.2069 75.724 15.7723C75.724 13.9366 77.3503 12.755 79.8527 12.755C82.3552 12.755 84.1273 13.9366 84.3985 16.4686H82.8137C82.6468 15.0974 81.8129 14.1055 79.7479 14.1055C78.0589 14.1055 77.2665 14.7804 77.2665 15.7297C77.2665 16.6789 78.0384 17.2703 78.914 17.3965L81.1037 17.755C83.2723 18.0928 84.0442 19.3585 84.0858 20.6882C84.1484 22.6928 82.5426 24.0012 80.1655 24.0012C77.9131 24.0012 75.9945 22.7983 75.8071 20.4352H77.3292L77.3298 20.4346ZM87.019 20.6455V14.3579H84.9336V13.0709H87.019V10.6443L88.5827 10.3279V13.0715H91.669V14.3585H88.5827V20.4352C88.5827 21.849 88.8123 22.6721 90.0427 22.6721C90.5013 22.6721 91.0231 22.5666 91.669 22.2715V23.5585C90.9598 23.8536 90.2928 24.0018 89.5835 24.0018C87.853 24.0018 87.0184 22.9891 87.0184 20.6467L87.019 20.6455ZM92.8916 23.6835V13.0709H94.4559V15.2017H94.7686L94.8313 15.0115C95.3941 13.3446 96.7287 12.7538 98.1056 12.7538C98.4394 12.7538 98.71 12.7959 99.0022 12.8593V14.2939H97.626C94.9777 14.2939 94.4565 16.9527 94.4565 18.6616V23.6835H92.8922H92.8916ZM99.2396 18.3872C99.2396 15.2017 101.304 12.7538 104.62 12.7538C107.936 12.7538 110 15.2011 110 18.3872C110 21.5734 107.936 24 104.62 24C101.304 24 99.2396 21.5314 99.2396 18.3872ZM100.845 18.3872C100.845 21.0461 102.514 22.5654 104.62 22.5654C106.726 22.5654 108.394 21.0461 108.394 18.3872C108.394 15.7284 106.726 14.2097 104.62 14.2097C102.514 14.2097 100.845 15.7284 100.845 18.3872Z" fill="#CCCCCC"/>
<path d="M11.7036 6.17422C11.7036 10.1036 10.161 13.8726 7.41455 16.6509L3.66359 20.4462L1.61728 18.3757L7.80199 12.118C7.90262 12.0162 7.83152 11.8412 7.68871 11.8412H0V8.91289H8.57388C8.70403 8.91289 8.80948 8.8062 8.80948 8.67451V0H11.7036V6.17422ZM23.4072 11.8418H15.6576C15.5377 11.8418 15.4775 11.6949 15.5624 11.6095L21.7917 5.30664L19.7454 3.23617L15.9932 7.03264C13.2468 9.81095 11.7042 13.58 11.7042 17.5094V23.6836H14.5983V15.0085C14.5983 14.8768 14.7038 14.7701 14.8339 14.7701H23.4078V11.8418H23.4072Z" fill="#CCCCCC"/>
</g>
<defs>
<clipPath id="clip0_2832_2164">
<rect width="109.999" height="24" fill="white"/>
</clipPath>
</defs>
</svg>
