<svg width="184" height="40" viewBox="0 0 184 40" fill="none" xmlns="http://www.w3.org/2000/svg">
<g clip-path="url(#clip0_2601_27)">
<path d="M58.5176 39.4732V14.8564H62.584L70.1261 31.6663C71.0993 33.8815 71.6898 35.7105 71.6898 37.0467H72.1065C72.1065 35.7451 72.5926 33.9871 73.6009 31.7008L81.1772 14.8564H85.2787V39.4722H82.5681V17.6345H82.0811C82.0459 18.5135 81.838 19.8853 80.8297 22.136L73.0787 39.4732H70.6453L62.8943 22.1716C61.887 19.8507 61.7123 18.5145 61.6781 17.6356H61.2262V39.4732H58.5156H58.5176ZM88.8268 34.5501C88.8268 30.7873 92.2323 28.7124 97.2376 28.5376L101.965 28.3263V27.869C101.965 24.6692 99.7403 23.649 96.7857 23.649C94.4568 23.649 91.7814 24.2821 91.5032 27.6932H88.8971C89.106 23.5444 92.0596 21.2581 96.8209 21.2581C101.582 21.2581 104.572 23.649 104.572 27.9036V39.4732H101.966V35.6404H101.445C100.124 38.5943 97.4827 40.0016 94.737 40.0016C91.4349 40.0016 88.8288 37.9622 88.8288 34.5511L88.8268 34.5501ZM101.965 31.1745V30.4012L97.2376 30.577C94.6305 30.6827 91.4681 31.3157 91.4681 34.2696C91.4681 36.5549 93.1362 37.7865 95.4651 37.7865C99.0443 37.7865 101.965 34.9382 101.965 31.1755V31.1745ZM124.644 33.7768C123.393 38.1025 119.709 40.0016 115.886 40.0016C110.256 40.0016 107.023 35.8528 107.023 30.6471C107.023 25.4415 110.081 21.2581 115.782 21.2581C121.482 21.2581 124.332 24.9497 124.332 30.2955V31.456H109.595C109.804 35.7105 112.48 37.6808 115.886 37.6808C118.667 37.6808 121.065 36.4147 122.003 33.7778H124.644V33.7768ZM109.63 29.2052H121.725C121.482 25.3368 119.049 23.5434 115.782 23.5434C112.515 23.5434 109.943 25.5472 109.629 29.2052H109.63ZM128.884 34.0573C129.266 36.4492 130.968 37.7854 133.576 37.7854C136.008 37.7854 137.607 36.625 137.607 34.6558C137.607 33.1793 136.669 32.089 134.514 31.772L131.316 31.3157C127.84 30.7884 126.207 28.6779 126.207 26.2869C126.207 23.2273 128.918 21.2581 133.088 21.2581C137.259 21.2581 140.213 23.2273 140.665 27.4473H138.023C137.745 25.162 136.355 23.5088 132.914 23.5088C130.099 23.5088 128.778 24.6337 128.778 26.2158C128.778 27.7979 130.065 28.7835 131.524 28.9939L135.173 29.5914C138.788 30.1543 140.074 32.2638 140.143 34.48C140.248 37.821 137.572 40.0016 133.61 40.0016C129.856 40.0016 126.658 37.9968 126.346 34.0583H128.883L128.884 34.0573ZM145.032 34.4088V23.9295H141.557V21.7844H145.032V17.7402L147.638 17.2129V21.7854H152.782V23.9305H147.638V34.0583C147.638 36.4147 148.021 37.7865 150.072 37.7865C150.836 37.7865 151.706 37.6107 152.782 37.1189V39.2639C151.6 39.7557 150.489 40.0026 149.307 40.0026C146.422 40.0026 145.031 38.3148 145.031 34.4109L145.032 34.4088ZM154.82 39.4722V21.7844H157.427V25.3358H157.948L158.053 25.0188C158.991 22.2407 161.215 21.256 163.51 21.256C164.066 21.256 164.517 21.3262 165.004 21.4318V23.8228H162.711C158.297 23.8228 157.428 28.2541 157.428 31.1023V39.4722H154.821H154.82ZM165.4 30.6451C165.4 25.3358 168.841 21.256 174.367 21.256C179.894 21.256 183.335 25.3348 183.335 30.6451C183.335 35.9554 179.894 39.9996 174.367 39.9996C168.841 39.9996 165.4 35.8853 165.4 30.6451ZM168.077 30.6451C168.077 35.0764 170.857 37.6086 174.367 37.6086C177.877 37.6086 180.658 35.0764 180.658 30.6451C180.658 26.2137 177.877 23.6826 174.367 23.6826C170.857 23.6826 168.077 26.2137 168.077 30.6451Z" fill="#F5F5F5"/>
<path d="M19.5061 10.2904C19.5061 16.8393 16.9352 23.121 12.3577 27.7516L6.10602 34.077L2.69549 30.6262L13.0034 20.1966C13.1711 20.0269 13.0526 19.7353 12.8146 19.7353H0V14.8548H14.2899C14.5068 14.8548 14.6826 14.677 14.6826 14.4575V0H19.5061V10.2904ZM39.0123 19.7363H26.0962C25.8964 19.7363 25.7959 19.4914 25.9375 19.3492L36.3198 8.8444L32.9092 5.39362L26.6556 11.7211C22.0781 16.3516 19.5071 22.6333 19.5071 29.1823V39.4726H24.3307V25.0141C24.3307 24.7946 24.5064 24.6168 24.7234 24.6168H39.0133V19.7363H39.0123Z" fill="#F5F5F5"/>
</g>
<defs>
<clipPath id="clip0_2601_27">
<rect width="183.333" height="40" fill="white"/>
</clipPath>
</defs>
</svg>
