<svg width="75" height="75" viewBox="0 0 75 75" fill="none" xmlns="http://www.w3.org/2000/svg">
<path d="M37.499 19.5522C37.499 31.9956 32.5566 43.9312 23.7567 52.7294L11.7384 64.748L5.18187 58.1913L24.9981 38.3746C25.3205 38.0522 25.0927 37.4981 24.6351 37.4981H0V28.2249H27.4712C27.8883 28.2249 28.2261 27.887 28.2261 27.47V0H37.499V19.5522ZM74.9981 37.5H50.168C49.7838 37.5 49.5907 37.0347 49.8629 36.7644L69.822 16.8048L63.2655 10.2482L51.2433 22.2706C42.4434 31.0688 37.501 43.0044 37.501 55.4478V75H46.7739V47.5281C46.7739 47.111 47.1117 46.7732 47.5288 46.7732H75V37.5H74.9981Z" fill="#F5F5F5"/>
</svg>
